<?xml version="1.0" encoding="iso-8859-1"?>
<!-- Uploaded to: SVG Repo, www.svgrepo.com, Generator: SVG Repo Mixer Tools -->
<svg height="800px" width="800px" version="1.1" id="Layer_1" xmlns="http://www.w3.org/2000/svg" xmlns:xlink="http://www.w3.org/1999/xlink" 
	 viewBox="0 0 501.981 501.981" xml:space="preserve">
<path style="fill:#F1543F;" d="M416.085,101.785H95.301c-10.449,0-18.808,8.359-18.808,18.808s8.359,18.808,18.808,18.808h320.784
	c10.449,0,18.808-8.359,18.808-18.808C433.848,110.145,425.489,101.785,416.085,101.785z"/>
<path style="fill:#FF7058;" d="M404.591,101.785C379.513,46.406,327.268,5.655,264.574,0.43
	C191.432-4.794,125.603,38.047,98.436,101.785H404.591z"/>
<path style="fill:#F2F2F2;" d="M417.129,146.716c0-2.09-1.045-5.224-1.045-7.314H87.987c0,1.045,0,2.09-1.045,3.135L57.685,336.888
	c-8.359,54.335,6.269,105.535,35.527,145.241c9.404,12.539,22.988,19.853,37.616,19.853h240.327
	c14.629,0,29.257-7.314,37.616-19.853c29.257-39.706,43.886-90.906,35.527-145.241L417.129,146.716z"/>
<g>
	<circle style="fill:#FFFFFF;" cx="192.476" cy="41.181" r="10.449"/>
	<circle style="fill:#FFFFFF;" cx="252.036" cy="41.181" r="10.449"/>
	<circle style="fill:#FFFFFF;" cx="310.55" cy="41.181" r="10.449"/>
</g>
</svg>