<?xml version="1.0" encoding="iso-8859-1"?>
<!-- Uploaded to: SVG Repo, www.svgrepo.com, Generator: SVG Repo Mixer Tools -->
<svg version="1.1" id="Layer_1" xmlns="http://www.w3.org/2000/svg" xmlns:xlink="http://www.w3.org/1999/xlink" 
	 viewBox="0 0 501.551 501.551" xml:space="preserve">
<path style="fill:#F2F2F2;" d="M480.653,1.045H20.898C9.404,1.045,0,10.449,0,21.943v431.543c0,11.494,9.404,20.898,20.898,20.898
	h459.755c11.494,0,20.898-9.404,20.898-20.898V21.943C501.551,9.404,492.147,1.045,480.653,1.045z"/>
<path style="fill:#40596B;" d="M480.653,1.045H20.898C9.404,1.045,0,10.449,0,21.943v77.322h501.551V21.943
	C501.551,9.404,492.147,1.045,480.653,1.045z"/>
<g>
	<rect x="42.841" y="474.384" style="fill:#ACB3BA;" width="64.784" height="26.122"/>
	<rect x="393.927" y="474.384" style="fill:#ACB3BA;" width="64.784" height="26.122"/>
</g>
<g>
	<circle style="fill:#FFFFFF;" cx="61.649" cy="49.11" r="19.853"/>
	<circle style="fill:#FFFFFF;" cx="131.657" cy="49.11" r="19.853"/>
	<circle style="fill:#FFFFFF;" cx="201.665" cy="49.11" r="19.853"/>
</g>
<rect x="37.616" y="140.016" style="fill:#84DBFF;" width="426.318" height="256"/>
<polygon style="fill:#54C0EB;" points="37.616,396.016 463.935,396.016 463.935,140.016 "/>
<g>
	<rect x="42.841" y="474.384" style="fill:#9EA8AF;" width="64.784" height="10.449"/>
	<rect x="393.927" y="474.384" style="fill:#9EA8AF;" width="64.784" height="10.449"/>
</g>
</svg>